<svg width="42" height="42" viewBox="0 0 42 42" fill="none" xmlns="http://www.w3.org/2000/svg">
<rect width="42" height="42" rx="6" fill="#E7F9FF"/>
<path fill-rule="evenodd" clip-rule="evenodd" d="M29.032 23.8807C29.1812 23.6236 29.4228 23.4331 29.7077 23.3481C29.9926 23.2632 30.2991 23.2902 30.5647 23.4236C30.8303 23.557 31.035 23.7868 31.137 24.066C31.2389 24.3452 31.2305 24.6528 31.1133 24.926L31.0527 25.0473L30.6618 25.724C30.895 25.9974 31.0847 26.3052 31.2242 26.6363L31.3012 26.8335H32.084C32.3813 26.8338 32.6674 26.9477 32.8836 27.1518C33.0998 27.3559 33.2299 27.6349 33.2474 27.9318C33.2648 28.2286 33.1682 28.5209 32.9773 28.749C32.7865 28.977 32.5158 29.1235 32.2205 29.1587L32.084 29.1668H31.3012C31.187 29.4904 31.0258 29.7955 30.8228 30.0722L30.6618 30.2752L31.0527 30.953C31.2027 31.2108 31.2482 31.5163 31.18 31.8066C31.1118 32.097 30.9349 32.3502 30.6857 32.5142C30.4366 32.6782 30.1341 32.7406 29.8404 32.6885C29.5467 32.6363 29.2842 32.4737 29.1067 32.234L29.032 32.1197L28.6412 31.443C28.2993 31.506 27.9528 31.5165 27.6145 31.478L27.3613 31.4407L26.9693 32.1197C26.8201 32.3768 26.5785 32.5672 26.2936 32.6522C26.0088 32.7371 25.7022 32.7101 25.4366 32.5767C25.171 32.4433 24.9663 32.2135 24.8643 31.9343C24.7624 31.6551 24.7708 31.3475 24.888 31.0743L24.9487 30.953L25.3395 30.2752C25.1065 30.0024 24.9169 29.6955 24.7772 29.3652L24.7002 29.1668H23.9173C23.62 29.1665 23.3339 29.0526 23.1177 28.8485C22.9015 28.6444 22.7714 28.3654 22.754 28.0685C22.7365 27.7717 22.8331 27.4794 23.024 27.2514C23.2148 27.0233 23.4855 26.8768 23.7808 26.8417L23.9173 26.8335H24.7013C24.8155 26.5099 24.9767 26.2049 25.1797 25.9282L25.3395 25.7252L24.9487 25.0473C24.7986 24.7895 24.7531 24.484 24.8213 24.1937C24.8896 23.9033 25.0664 23.6501 25.3156 23.4861C25.5647 23.3221 25.8672 23.2597 26.1609 23.3119C26.4546 23.364 26.7172 23.5266 26.8947 23.7663L26.9693 23.8807L27.3602 24.5573C27.702 24.4943 28.0485 24.4838 28.3868 24.5223L28.64 24.5585L29.032 23.8807ZM19.834 22.1668C20.3559 22.1668 20.8677 22.1941 21.3693 22.2485C21.677 22.2811 21.9592 22.4347 22.1537 22.6754C22.3482 22.916 22.4391 23.2241 22.4065 23.5318C22.3738 23.8395 22.2203 24.1217 21.9796 24.3162C21.739 24.5107 21.4309 24.6016 21.1232 24.569C20.7024 24.5231 20.2727 24.5002 19.834 24.5002C17.4738 24.5002 15.3505 25.1885 13.842 26.109C13.0872 26.5687 12.5178 27.068 12.1503 27.5347C11.7723 28.013 11.6673 28.3747 11.6673 28.5835C11.6673 28.7258 11.7105 28.8763 11.9648 29.0805C12.2553 29.3138 12.7605 29.5553 13.5328 29.7595C15.0705 30.1678 17.2802 30.3335 19.834 30.3335L20.6017 30.3277C20.9111 30.3235 21.2095 30.4424 21.4312 30.6582C21.653 30.8741 21.7799 31.1692 21.7841 31.4786C21.7882 31.788 21.6693 32.0864 21.4535 32.3081C21.2377 32.5299 20.9426 32.6568 20.6332 32.661L19.834 32.6668C17.2335 32.6668 14.7765 32.5035 12.9355 32.0158C12.0197 31.7732 11.1575 31.4255 10.5042 30.9005C9.81232 30.3452 9.33398 29.5693 9.33398 28.5835C9.33398 27.6653 9.75165 26.8067 10.3187 26.088C10.895 25.3588 11.6918 24.688 12.6263 24.1163C14.4965 22.9777 17.0398 22.1668 19.834 22.1668ZM28.0007 26.8335C27.6912 26.8335 27.3945 26.9564 27.1757 27.1752C26.9569 27.394 26.834 27.6907 26.834 28.0002C26.834 28.3096 26.9569 28.6063 27.1757 28.8251C27.3945 29.0439 27.6912 29.1668 28.0007 29.1668C28.3101 29.1668 28.6068 29.0439 28.8256 28.8251C29.0444 28.6063 29.1673 28.3096 29.1673 28.0002C29.1673 27.6907 29.0444 27.394 28.8256 27.1752C28.6068 26.9564 28.3101 26.8335 28.0007 26.8335ZM19.834 9.3335C21.3811 9.3335 22.8648 9.94808 23.9588 11.042C25.0527 12.136 25.6673 13.6197 25.6673 15.1668C25.6673 16.7139 25.0527 18.1977 23.9588 19.2916C22.8648 20.3856 21.3811 21.0002 19.834 21.0002C18.2869 21.0002 16.8032 20.3856 15.7092 19.2916C14.6152 18.1977 14.0007 16.7139 14.0007 15.1668C14.0007 13.6197 14.6152 12.136 15.7092 11.042C16.8032 9.94808 18.2869 9.3335 19.834 9.3335ZM19.834 11.6668C19.3744 11.6668 18.9192 11.7574 18.4946 11.9333C18.07 12.1091 17.6841 12.367 17.3591 12.692C17.0341 13.017 16.7763 13.4028 16.6004 13.8274C16.4245 14.2521 16.334 14.7072 16.334 15.1668C16.334 15.6265 16.4245 16.0816 16.6004 16.5062C16.7763 16.9309 17.0341 17.3167 17.3591 17.6417C17.6841 17.9667 18.07 18.2245 18.4946 18.4004C18.9192 18.5763 19.3744 18.6668 19.834 18.6668C20.7622 18.6668 21.6525 18.2981 22.3089 17.6417C22.9652 16.9853 23.334 16.0951 23.334 15.1668C23.334 14.2386 22.9652 13.3483 22.3089 12.692C21.6525 12.0356 20.7622 11.6668 19.834 11.6668Z" fill="black"/>
</svg>
